<svg width="16" height="17" viewBox="0 0 16 17" fill="none" xmlns="http://www.w3.org/2000/svg">
<g id="solar:widget-bold-duotone">
<g id="Group">
<path id="Vector" opacity="0.5" d="M1.78191 10.2819C0.942036 9.44204 0.521901 9.0219 0.521901 8.5C0.521901 7.9781 0.942036 7.55796 1.78191 6.71809C2.62178 5.87822 3.04192 5.45808 3.56382 5.45808C4.08572 5.45808 4.50585 5.87822 5.34573 6.71809C6.1856 7.55796 6.60573 7.9781 6.60573 8.5C6.60573 9.0219 6.1856 9.44204 5.34573 10.2819C4.50585 11.1218 4.08572 11.5419 3.56382 11.5419C3.04192 11.5419 2.62178 11.1218 1.78191 10.2819ZM10.4935 10.2819C9.65359 9.44204 9.23346 9.0219 9.23346 8.5C9.23346 7.9781 9.65359 7.55796 10.4935 6.71809C11.3333 5.87822 11.7535 5.45808 12.2754 5.45808C12.7973 5.45808 13.2174 5.87822 14.0573 6.71809C14.8972 7.55796 15.3173 7.9781 15.3173 8.5C15.3173 9.0219 14.8972 9.44204 14.0573 10.2819C13.2174 11.1218 12.7973 11.5419 12.2754 11.5419C11.7535 11.5419 11.3333 11.1218 10.4935 10.2819Z" fill="#555555"/>
<path id="Vector_2" d="M6.13769 14.6377C5.29781 13.7978 4.87768 13.3777 4.87768 12.8558C4.87768 12.3339 5.29781 11.9137 6.13769 11.0739C6.97756 10.234 7.39769 9.81386 7.9196 9.81386C8.4415 9.81386 8.86163 10.234 9.70151 11.0739C10.5414 11.9137 10.9615 12.3339 10.9615 12.8558C10.9615 13.3777 10.5414 13.7978 9.7015 14.6377C8.86163 15.4776 8.4415 15.8977 7.9196 15.8977C7.39769 15.8977 6.97756 15.4776 6.13769 14.6377ZM6.13769 5.92613C5.29781 5.08626 4.87768 4.66612 4.87768 4.14422C4.87768 3.62232 5.29781 3.20219 6.13769 2.36231C6.97756 1.52244 7.39769 1.10231 7.9196 1.10231C8.4415 1.10231 8.86163 1.52244 9.7015 2.36231C10.5414 3.20219 10.9615 3.62232 10.9615 4.14422C10.9615 4.66612 10.5414 5.08626 9.70151 5.92613C8.86163 6.766 8.4415 7.18614 7.9196 7.18614C7.39769 7.18614 6.97756 6.766 6.13769 5.92613Z" fill="#555555"/>
</g>
</g>
</svg>
