<svg width="9" height="6" viewBox="0 0 9 6" fill="none" xmlns="http://www.w3.org/2000/svg">
<path id="Vector" d="M4.27629 5.49999C4.17528 5.50047 4.0752 5.48077 3.98191 5.44204C3.88862 5.40332 3.80401 5.34636 3.73303 5.27449L0.176266 1.68697C0.0825898 1.54249 0.040133 1.37074 0.0557003 1.19925C0.0712676 1.02777 0.143958 0.866472 0.26212 0.74122C0.380281 0.615969 0.537072 0.534014 0.707363 0.508492C0.877653 0.48297 1.05158 0.515359 1.20127 0.600467L4.27629 3.67548L7.3513 0.600467C7.50099 0.515359 7.67492 0.48297 7.84521 0.508492C8.0155 0.534014 8.17229 0.615969 8.29045 0.74122C8.40862 0.866472 8.48131 1.02777 8.49687 1.19925C8.51244 1.37074 8.46998 1.54249 8.37631 1.68697L4.78879 5.27449C4.65297 5.41227 4.46963 5.49294 4.27629 5.49999Z" fill="white"/>
</svg>
